<svg xmlns="http://www.w3.org/2000/svg" viewBox="0 0 64 64">
  <circle cx="32" cy="32" r="32" fill="#00a884"/>
  <path fill="#fff" d="M32 14c-9.94 0-18 7.6-18 17 0 4.04 1.5 7.75 4.02 10.7L16 50l8.7-2.27A18.9 18.9 0 0 0 32 50c9.94 0 18-7.6 18-17s-8.06-19-18-19Z"/>
  <path fill="#00a884" d="M25.5 23.5c-.5-1.1-1-1.1-1.45-1.12h-1.24c-.43 0-1.13.16-1.72.8-.59.65-2.25 2.2-2.25 5.35 0 3.16 2.3 6.2 2.62 6.63.32.43 4.45 7.1 11 9.68 5.44 2.15 6.55 1.72 7.73 1.61 1.18-.1 3.8-1.55 4.34-3.05.54-1.5.54-2.78.38-3.05-.16-.27-.59-.43-1.24-.75-.65-.32-3.8-1.87-4.39-2.08-.59-.22-1.02-.32-1.45.32-.43.65-1.66 2.08-2.04 2.51-.38.43-.75.48-1.4.16-.65-.32-2.74-1-5.22-3.2-1.93-1.7-3.23-3.8-3.61-4.45-.38-.65-.04-1 .29-1.33.29-.29.65-.75.97-1.13.32-.38.43-.65.65-1.08.22-.43.11-.81-.05-1.13-.16-.32-1.4-3.45-1.97-4.7Z"/>
</svg>
